<svg width="385" height="389" viewBox="0 0 385 389" fill="none" xmlns="http://www.w3.org/2000/svg">
<path fill-rule="evenodd" clip-rule="evenodd" d="M330.567 59.7243C374.836 101.756 387.202 164.438 383.952 225.382C380.837 283.779 363.441 345.889 313.668 376.579C267.368 405.128 211.838 377.201 159.039 364.064C105.606 350.77 41.7174 350.197 14.7251 302.202C-13.9485 251.218 6.39219 189.322 30.9058 136.232C57.1408 79.4118 91.2701 20.5598 151.916 5.07693C215.386 -11.1282 283.05 14.6103 330.567 59.7243Z" fill="url(#paint0_linear_29230_2359)"/>
<path d="M231.322 38.0311C233.553 37.5453 235.836 38.4055 237.937 39.3009C278.143 56.4319 309.513 93.0262 320.298 135.378C331.084 177.729 321.037 224.871 293.922 259.146C266.807 293.421 223.242 314.045 179.546 313.296C178.657 318.371 177.769 323.446 176.881 328.522C176.88 324.22 176.811 319.668 174.554 316.006C172.298 312.345 167.01 310.199 163.554 312.76C158.831 318.399 162.48 328.619 169.708 329.991C168.294 333.307 162.844 332.274 161.011 329.171C159.179 326.067 159.595 322.203 159.312 318.61C159.03 315.018 157.372 310.887 153.838 310.182C143.346 308.089 133.055 304.99 123.154 300.939C116.745 298.318 109.358 293.169 110.86 286.41C111.97 281.418 117.877 278.745 122.947 279.416C128.016 280.088 132.39 283.18 136.534 286.177C138.695 278.708 140.857 271.239 143.018 263.77C136.215 264.085 134.305 254.118 128.573 250.441C102.349 233.616 84.8662 203.878 82.9198 172.781C80.9728 141.685 94.61 109.999 118.532 90.035C142.454 70.0715 176.068 62.3235 206.315 69.803C209.904 65.3879 216.612 63.8595 221.76 66.2833C226.573 63.8275 226.326 57.0161 225.722 51.647C225.118 46.2785 226.043 39.1819 231.322 38.0311ZM146.448 288.56C144.466 286.366 146.41 287.663 146.41 287.663L146.448 288.807V289.331C146.448 289.331 141.645 287.472 139.339 286.719C178.786 300.044 224.69 292.292 257.574 266.753C290.458 241.215 309.332 198.657 306.187 157.139C303.041 115.622 277.97 76.394 241.613 56.1009C240.747 55.6174 239.775 55.127 238.804 55.3383C237.558 55.6082 236.85 56.8933 236.303 58.045C234.478 61.8842 232.653 65.7227 230.828 69.5612C235.127 72.0857 237.424 77.5997 236.188 82.4297C260.791 98.0232 277.924 124.887 281.685 153.772C285.448 182.656 275.767 213.013 255.979 234.387C236.19 255.762 206.669 267.749 177.581 266.222C170.764 265.863 163.421 264.919 157.547 268.397C150.754 272.418 148.315 280.892 146.448 288.56Z" fill="white"/>
<path d="M136.492 109.396C135.94 109.404 135.7 110.089 135.612 110.635C135.274 112.714 134.937 114.793 134.599 116.871C137.197 116.818 140.126 116.617 141.817 114.642C139.489 114.25 137.749 111.735 138.203 109.418C139.031 110.697 140.149 111.786 141.451 112.579C142.098 112.974 142.846 113.36 143.099 114.076C143.518 115.259 142.341 116.352 141.314 117.072C140.287 117.792 139.137 118.94 139.622 120.097C138.673 119.001 137.282 118.299 135.836 118.186C135.008 118.122 134.093 118.219 133.432 117.717C132.365 116.91 132.729 115.23 133.318 114.03C133.908 112.829 134.625 111.405 133.964 110.242C133.469 109.371 132.31 108.941 132.049 107.974C131.669 106.565 133.414 105.582 134.829 105.221C135.814 104.969 136.849 104.747 137.836 104.992C138.822 105.236 139.73 106.091 139.693 107.106C139.224 108.421 137.889 109.377 136.492 109.396ZM138.8 106.705C137.388 105.905 135.504 106.033 134.212 107.015C133.788 107.338 133.401 107.902 133.658 108.369C135.499 108.486 137.377 107.878 138.8 106.705Z" fill="black"/>
<path d="M238.579 183.603C237.959 183.357 237.406 182.937 237.003 182.404C238.504 181.749 239.735 180.497 240.366 178.985C240.767 178.024 242.202 178.007 243.065 178.59C243.927 179.175 244.466 180.128 245.251 180.813C246.036 181.498 247.344 181.841 248.064 181.088C248.903 180.21 250.531 180.917 250.958 182.055C251.384 183.192 251.009 184.456 250.634 185.611C250.415 186.282 250.177 186.985 249.655 187.459C249.132 187.935 248.232 188.07 247.749 187.556C245.854 185.535 242.071 185.863 240.552 188.179C239.033 187.264 238.202 185.335 238.579 183.603ZM241.321 180.486C239.964 181.857 239.504 184.041 240.193 185.843C240.351 186.258 240.883 186.7 241.157 186.351C242.418 184.746 244.715 184.044 246.657 184.67C247.024 184.789 247.351 184.303 247.246 183.931C247.141 183.56 246.793 183.319 246.47 183.108C245.083 182.207 243.696 181.306 242.31 180.405C242.148 180.3 241.97 180.19 241.779 180.21C241.597 180.227 241.448 180.356 241.321 180.486ZM248.79 187.022C249.356 185.721 249.739 184.342 249.926 182.936C249.967 182.625 249.814 182.158 249.524 182.278C247.808 183.072 247.394 185.747 248.79 187.022Z" fill="black"/>
<path d="M195.383 184.385C192.806 182.404 189.541 180.815 188.466 177.748C186.639 172.53 180.842 169.804 177.973 165.079C175.55 161.09 175.476 156.094 176.2 151.484C178.013 139.932 185.155 128.698 196.092 124.562C201.312 122.589 207.008 122.313 212.588 122.371C217.389 122.42 222.354 122.741 226.631 124.923C230.909 127.105 234.344 131.596 233.894 136.377C233.712 138.301 232.931 140.147 232.894 142.079C232.796 147.373 237.982 151.022 242.567 153.67C246.989 156.223 251.412 158.776 255.834 161.33C258.116 162.648 258.428 165.756 258.476 168.391C258.607 175.596 258.738 182.801 258.869 190.006C258.895 191.446 258.919 192.908 258.548 194.299C258.146 195.801 257.305 197.142 256.476 198.456C248.211 211.56 239.242 225.309 225.296 232.056C222.243 233.533 219.024 234.63 215.814 235.725C212.814 236.748 209.815 237.77 206.815 238.792C204.599 239.547 202.315 240.313 199.977 240.18C197.639 240.048 195.207 238.798 194.386 236.605C193.909 235.332 194.024 233.92 194.223 232.576C194.901 227.998 196.495 223.558 198.883 219.594C202.214 214.062 204.217 207.611 203.829 201.166C203.442 194.72 200.502 188.321 195.383 184.385ZM185.115 169.11C191.325 174.887 196.842 181.405 201.512 188.485C203.122 190.923 204.645 193.46 205.503 196.252C207.166 201.666 206.178 207.573 204.255 212.901C202.333 218.229 199.514 223.188 197.38 228.435C196.198 231.34 195.467 235.228 197.948 237.147C199.988 238.727 202.919 237.907 205.343 237.021C208.979 235.692 212.614 234.364 216.249 233.035C219.266 231.932 222.291 230.826 225.155 229.373C238.244 222.731 246.626 209.673 254.376 197.209C255.078 196.08 255.788 194.933 256.153 193.655C256.532 192.326 256.519 190.92 256.502 189.539C256.43 183.444 256.358 177.349 256.286 171.254C256.261 169.11 256.215 166.878 255.245 164.965C253.515 161.554 249.481 160.177 246.011 158.569C240.804 156.156 236.146 152.568 232.485 148.149C231.541 147.01 230.638 145.764 230.347 144.313C229.831 141.735 231.339 139.201 231.563 136.58C231.93 132.29 228.692 128.34 224.787 126.523C220.883 124.707 216.433 124.575 212.126 124.54C208.045 124.507 203.91 124.541 199.96 125.572C188.197 128.643 180.147 140.371 178.42 152.405C177.931 155.819 177.894 159.451 179.42 162.543C180.71 165.158 182.98 167.125 185.115 169.11Z" fill="black"/>
<path d="M128.483 351.068C133.071 353.858 138.523 354.784 143.839 355.544C152.294 356.755 160.79 357.683 169.308 358.329C180.28 359.16 191.961 359.367 201.505 353.889C202.209 353.484 202.929 353.019 203.314 352.303C204.486 350.129 201.813 347.774 199.382 347.34C196.951 346.905 194.14 347.154 192.364 345.438C195.942 343.661 200.445 343.905 203.81 346.06C207.175 348.214 209.282 352.202 209.164 356.196C209.069 359.471 207.597 362.623 207.749 365.895C207.935 369.886 203.867 372.657 200.152 374.132C188.347 378.819 175.289 378.94 162.588 378.754C151.336 378.588 139.649 378.125 129.65 372.962C127.135 371.663 124.678 369.99 123.288 367.525C122.04 365.313 121.778 362.697 121.543 360.168C121.07 355.081 120.771 349.392 124.048 345.473C127.173 341.735 132.51 340.886 137.368 340.535C139.714 340.365 140.539 337.25 140.111 334.937C139.682 332.625 138.661 330.161 139.668 328.034C141.678 323.79 148.66 325.877 152.249 322.847C153.441 321.841 155.355 323.631 154.892 325.12C154.429 326.609 152.679 327.304 151.121 327.334C149.562 327.363 148.01 326.934 146.458 327.076C144.906 327.218 143.232 328.21 143.1 329.764C157.408 335.505 173.564 336.531 188.483 332.646C185.915 329.502 181.802 327.686 177.748 327.906C177.814 326.905 178.933 326.34 179.919 326.157C184.385 325.331 188.983 328.456 190.694 332.664C192.404 336.871 191.602 341.79 189.47 345.801C187.53 345.197 187.684 342.456 187.997 340.448C188.31 338.442 187.484 335.543 185.491 335.929C171.863 338.57 157.542 337.545 144.43 332.99C143.429 332.642 142.792 334.049 142.67 335.102C142.214 339.037 141.98 343.619 144.889 346.308C146.317 347.628 148.258 348.216 150.144 348.692C160.391 351.279 171.168 351.746 181.6 350.055C183.06 349.818 184.92 349.718 185.634 351.015C177.729 354.599 168.621 353.783 159.987 352.896C155.906 352.478 151.744 352.037 148.003 350.356C144.354 348.717 141.266 345.965 137.536 344.521C133.806 343.076 128.807 343.452 126.773 346.896C126.549 347.276 126.366 347.692 126.334 348.132C126.242 349.407 127.39 350.404 128.483 351.068ZM205.294 366.818C206.956 363.103 205.426 358.841 204.935 354.802C193.6 362.543 178.693 361.875 165.042 360.443C157.127 359.612 149.228 358.626 141.352 357.485C136.245 356.746 130.88 355.826 126.888 352.556C125.815 351.678 124.624 353.518 124.446 354.892C123.931 358.888 123.482 363.234 125.557 366.688C127.833 370.474 132.454 372.05 136.744 373.108C155.623 377.762 175.603 377.881 194.535 373.45C198.793 372.453 203.509 370.811 205.294 366.818Z" fill="black"/>
<path d="M228.625 37.2684C230.857 36.7826 233.14 37.6428 235.241 38.5382C275.447 55.6692 306.817 92.2635 317.602 134.615C328.388 176.967 318.341 224.109 291.226 258.383C264.111 292.658 220.546 313.283 176.85 312.533C175.961 317.609 175.073 322.683 174.185 327.759C174.184 323.457 174.115 318.905 171.858 315.244C169.601 311.582 164.313 309.437 160.858 311.997C156.135 317.636 159.784 327.857 167.011 329.229C165.597 332.544 160.147 331.511 158.315 328.408C156.483 325.305 156.899 321.44 156.616 317.847C156.334 314.255 154.676 310.124 151.142 309.419C140.65 307.326 130.359 304.227 120.458 300.176C114.049 297.555 106.662 292.406 108.164 285.648C109.274 280.655 115.181 277.982 120.251 278.653C125.32 279.325 129.694 282.417 133.838 285.414C135.999 277.945 138.161 270.477 140.322 263.008C133.519 263.323 131.609 253.355 125.877 249.679C99.6528 232.853 82.1701 203.116 80.2238 172.019C78.2767 140.922 91.914 109.236 115.836 89.2723C139.757 69.3088 173.372 61.5608 203.619 69.0403C207.208 64.6252 213.916 63.0968 219.063 65.5206C223.876 63.0648 223.63 56.2534 223.026 50.8843C222.422 45.5159 223.347 38.4192 228.625 37.2684ZM270.783 199.945C282.574 168.962 277.031 132.002 256.668 105.841C255.193 103.946 253.527 102.02 251.25 101.259C246.103 99.5393 240.957 97.8195 235.812 96.0989C236.37 98.2695 234.634 100.497 232.539 101.29C230.443 102.084 228.114 101.815 225.892 101.532C221.932 101.028 217.844 100.472 214.425 98.4129C211.005 96.3537 208.414 92.3672 209.241 88.4624C209.902 85.3423 206.079 83.3433 203.007 82.4869C194.988 80.2515 186.968 78.0161 178.949 75.7807C177.201 75.2934 175.331 74.7267 174.213 73.2967C173.096 71.866 173.316 69.3004 175.035 68.7185C161.596 69.0777 148.248 72.5295 136.32 78.7315C145.83 83.6606 155.52 88.7224 162.966 96.4231C168.805 102.463 173.194 110.558 172.486 118.929C171.872 126.182 167.449 132.742 161.689 137.191C155.928 141.64 148.926 144.199 141.866 145.974C131.451 148.591 118.833 149.004 111.667 141.005C109.582 138.678 105.856 139.281 102.835 140.075C97.7369 141.416 92.6385 142.756 87.5401 144.097C86.3534 144.409 84.9165 145.015 84.8761 146.242C84.7533 149.962 87.5103 153.578 91.1307 154.445C94.7503 155.312 98.8466 153.337 100.422 149.965C101.372 147.933 104.234 147.616 106.331 148.412C108.428 149.207 110.163 150.766 112.249 151.591C115.555 152.895 119.436 152.241 122.633 153.793C127.967 156.382 128.876 163.646 127.858 169.487C125.97 180.327 119.824 190.368 111.028 196.979C105.256 201.318 106.258 210.311 109.163 216.921C112.067 223.531 116.387 230.179 115.378 237.329C111.418 229.047 108.063 220.475 105.352 211.704C103.857 206.866 103.001 200.585 107.125 197.647C115.888 191.403 122.391 182.055 125.194 171.666C126.875 165.44 126.039 156.937 119.868 155.065C117.476 154.34 114.83 154.878 112.454 154.101C110.464 153.45 108.87 151.944 106.96 151.087C105.05 150.231 102.36 150.305 101.352 152.139C97.9177 158.39 87.3761 158.646 83.6421 152.569C79.3063 183.528 91.0331 216.3 114.026 237.48C137.019 258.661 170.641 267.662 201.141 260.804C231.641 253.947 258.174 231.419 269.888 202.435C266.633 200.984 264.789 197.387 264.313 193.856C263.837 190.324 264.472 186.752 264.824 183.206C265.532 176.074 265.087 168.83 263.513 161.839C263.09 159.959 262.26 157.77 260.373 157.38C254.707 156.21 249.331 153.664 244.838 150.022C241.424 147.256 238.559 141.772 241.881 138.896C243.428 137.556 241.232 135.349 240.432 133.464C238.743 129.486 243.915 126.219 248.049 124.957C252.895 123.479 257.743 122 262.59 120.522C263.113 120.362 263.667 120.201 264.198 120.33C265.743 120.708 265.635 123.203 264.335 124.119C263.035 125.035 261.3 124.887 259.71 124.848C253.386 124.698 247.035 127.013 242.29 131.197C244.401 133.531 244.944 137.156 243.61 140.006C242.004 143.438 244.283 147.601 247.435 149.705C250.585 151.808 254.43 152.525 257.966 153.883C261.504 155.241 265.068 157.655 265.924 161.346C267.658 168.822 268.036 176.611 267.033 184.221C266.276 189.964 265.566 197.428 270.783 199.945ZM143.751 287.797C141.77 285.603 142.26 282.123 143.495 279.438C144.73 276.753 146.596 274.293 147.118 271.383C147.64 268.474 146.064 264.844 143.117 264.618C140.959 271.73 138.8 278.844 136.642 285.956C176.089 299.281 221.994 291.529 254.878 265.991C287.762 240.452 306.636 197.894 303.49 156.376C300.345 114.859 275.274 75.6313 238.917 55.3382C238.05 54.8547 237.079 54.3643 236.108 54.5756C234.862 54.8455 234.154 56.1306 233.607 57.2823C231.782 61.1215 229.957 64.96 228.132 68.7985C232.431 71.323 234.728 76.837 233.492 81.667C258.095 97.2605 275.228 124.125 278.989 153.009C282.751 181.894 273.071 212.25 253.283 233.625C233.494 254.999 203.973 266.987 174.884 265.459C168.067 265.101 160.725 264.156 154.85 267.634C148.058 271.655 145.619 280.129 143.751 287.797ZM236.625 41.9023C234.382 40.9025 231.941 39.9408 229.532 40.4189C227.123 40.8964 224.983 43.4498 225.86 45.7431C268.098 62.987 299.629 104.074 305.358 149.335C311.088 194.595 290.79 242.243 254.182 269.468C217.573 296.693 166.1 302.421 124.403 283.909C120.353 282.11 114.824 280.429 112.153 283.964C110.508 286.14 111.058 289.392 112.717 291.558C114.376 293.723 116.889 295.038 119.352 296.211C163.833 317.409 219.557 312.768 259.919 284.504C300.281 256.24 323.697 205.462 318.987 156.414C314.278 107.365 281.627 61.9704 236.625 41.9023ZM86.6325 142.13C91.8232 140.713 97.0131 139.296 102.203 137.879C105.783 136.902 110.216 136.152 112.688 138.92C116.681 143.388 122.863 145.433 128.854 145.546C134.845 145.66 140.729 144.046 146.429 142.195C154.196 139.671 162.471 136.111 166.189 128.839C168.375 124.565 170.619 120.025 170.322 115.233C170.049 110.817 167.652 106.853 165.323 103.091C163.366 99.9298 161.358 96.7106 158.498 94.3349C153.618 90.2813 146.725 89.0733 142.266 84.5613C139.689 81.953 135.595 81.3169 132.019 82.1284C128.443 82.9399 125.282 84.9915 122.331 87.1681C105.415 99.6499 92.6637 117.682 86.5349 137.791C86.0963 139.23 85.7303 140.926 86.6325 142.13ZM233.957 95.2112C235.613 92.8302 239.353 93.6592 241.821 95.1837C244.289 96.7083 246.948 98.7729 249.758 98.0521C234.411 82.4853 213.851 72.1482 192.202 69.1128C186.598 68.3272 180.171 68.2776 176.143 72.2526C186.224 75.2759 196.305 78.2998 206.386 81.323C207.712 81.7212 209.112 82.165 210.021 83.2106C211.618 85.0479 211.047 87.8393 211.49 90.2333C212.13 93.6828 215.027 96.3682 218.266 97.7173C221.506 99.0665 225.082 99.306 228.584 99.5294C229.801 99.6072 231.158 99.6408 232.077 98.8392C233.113 97.9354 233.172 96.3392 233.957 95.2112ZM230.895 79.9319C231.837 77.872 230.989 75.3437 229.424 73.7055C227.86 72.0673 225.714 71.1346 223.611 70.2918C219.925 68.813 216.101 67.4639 212.13 67.3571C211.135 67.3304 210.04 67.4227 209.325 68.1159C208.611 68.81 208.677 70.285 209.63 70.5733C217.061 72.8208 224.218 75.9706 230.895 79.9319ZM158.458 263.097C151.232 261.749 144.199 259.373 137.636 256.062C137.093 255.788 136.515 255.5 135.91 255.557C135.304 255.614 134.707 256.18 134.86 256.769C134.964 257.167 135.35 257.416 135.706 257.624C139.478 259.843 143.283 262.075 147.422 263.496C151.561 264.917 156.111 265.486 160.327 264.311C160.186 263.531 159.238 263.243 158.458 263.097ZM231.423 51.213C230.856 50.3817 229.526 50.4419 228.739 51.0696C227.953 51.6973 227.575 52.6918 227.231 53.6367C225.792 57.5896 224.354 61.5425 222.915 65.4954C222.783 65.8592 222.649 66.2383 222.691 66.6219C222.816 67.7377 224.399 68.1419 225.36 67.5607C226.32 66.9796 226.776 65.8516 227.171 64.8006C228.553 61.1139 229.935 57.4272 231.317 53.7404C231.625 52.9175 231.918 51.9383 231.423 51.213Z" fill="black"/>
<defs>
<linearGradient id="paint0_linear_29230_2359" x1="126.293" y1="0.204352" x2="447.768" y2="62.5751" gradientUnits="userSpaceOnUse">
<stop stop-color="#EB1484"/>
<stop offset="0.9999" stop-color="#C91CC3"/>
<stop offset="1" stop-color="#C81CC5"/>
<stop offset="1" stop-color="#C81CC5"/>
</linearGradient>
</defs>
</svg>
