<svg width="462" height="344" viewBox="0 0 462 344" fill="none" xmlns="http://www.w3.org/2000/svg">
<path d="M308.816 265.274C333.232 268.251 354.181 283.308 371.42 285.371C390.58 287.663 419.557 275.075 449.105 289.891C456.711 293.705 462.956 298.288 460.629 303.984C456.574 313.91 448.04 317.799 429.347 320.496L427.353 320.772C412.903 322.694 397.371 323.159 357.999 323.419L344.546 323.521C296.551 323.939 268.796 326.186 232.854 329.057L229.19 329.354C163.005 334.8 110.174 333.928 70.6982 327.891L69.5057 327.706C37.612 322.711 18.4369 314.447 9.07653 305.072C3.56622 299.552 0.392071 294.406 0.228271 288.905C0.064398 283.404 8.19157 277.358 12.8186 275.075C25.7081 268.715 29.9139 266.409 54.6938 263.152C65.3626 261.75 81.3474 261.862 99.824 261.238C166.106 259 268.502 260.358 308.816 265.274Z" fill="white"/>
<path fill-rule="evenodd" clip-rule="evenodd" d="M328.179 277.269C290.605 362.314 154.63 359.576 60.0169 301.529C41.9479 290.443 -20.1643 238.193 40.9688 207.681C102.101 177.171 82.5201 130.306 131.857 74.4094C188.912 9.76662 295.163 -23.3872 369.889 63.5855C559.815 284.641 340.831 248.631 328.179 277.269Z" fill="url(#paint0_linear_29230_2368)"/>
<path fill-rule="evenodd" clip-rule="evenodd" d="M76.9982 51.754C73.6108 46.3108 70.2162 44.2222 66.8768 46.0291C64.05 47.5579 63.5797 51.6434 65.0838 58.1779L64.1825 58.6642C62.9442 59.3325 62.4812 60.8781 63.1495 62.1164C63.207 62.2234 63.2725 62.3261 63.3446 62.4243L63.828 63.0708C70.8794 72.4249 76.4675 76.2563 80.8268 74.1495C84.4915 72.3783 85.1103 64.8355 83.2248 51.1869C83.093 50.2311 82.2413 49.5518 81.292 49.6203L81.1733 49.6327C80.9578 49.6625 80.7496 49.7309 80.5581 49.8336L76.9982 51.754ZM66.9991 56.7132L74.8615 52.4595L74.8426 52.4311C72.1395 48.2378 69.8485 46.9041 67.9164 47.9495L67.8276 48.0005C66.4 48.8719 66.0047 51.6084 66.914 56.2851L66.9991 56.7132ZM81.1318 52.0059L65.2192 60.5869C65.0423 60.6822 64.976 60.9028 65.0714 61.0797C65.0801 61.095 65.0889 61.1096 65.0998 61.1234L65.5679 61.7509C72.0136 70.3006 76.8613 73.6399 79.8767 72.1832C82.1677 71.0759 82.7691 64.3521 81.1747 52.3233L81.1318 52.0059ZM77.8806 65.7637C78.2547 65.372 78.4848 64.8406 78.4848 64.256C78.4848 63.0497 77.5071 62.072 76.3008 62.072C75.0945 62.072 74.1168 63.0497 74.1168 64.256C74.1168 65.4623 75.0945 66.44 76.3008 66.44C76.3954 66.44 76.4893 66.4334 76.5811 66.4218L77.8223 68.7012L77.8674 68.7732C78.0778 69.071 78.4819 69.1707 78.8102 68.9924C79.1633 68.7994 79.2936 68.3575 79.1014 68.0045L77.8806 65.7637Z" fill="url(#paint1_linear_29230_2368)"/>
<path fill-rule="evenodd" clip-rule="evenodd" d="M308.816 265.274C333.232 268.251 354.181 283.308 371.42 285.371C390.58 287.663 419.557 275.075 449.105 289.891C456.711 293.705 462.956 298.288 460.629 303.984C456.574 313.91 448.04 317.799 429.347 320.496L427.353 320.772C412.903 322.694 397.371 323.159 357.999 323.419L344.546 323.521C296.551 323.939 268.796 326.186 232.854 329.057L229.19 329.354C163.005 334.8 110.174 333.928 70.6982 327.891L69.5057 327.706C37.612 322.711 18.4369 314.447 9.07653 305.072C3.56622 299.552 0.392071 294.406 0.228271 288.905C0.064398 283.404 8.19157 277.358 12.8186 275.075C25.7081 268.715 29.9139 266.409 54.6938 263.152C65.3626 261.75 81.3474 261.862 99.824 261.238C166.106 259 268.502 260.358 308.816 265.274ZM54.1464 267.76L52.5229 267.976C29.4305 271.107 14.6689 276.804 7.676 282.484L7.23964 282.849C1.87013 287.476 1.36817 292.678 9.08636 300.368C17.5255 308.776 39.0498 318.261 70.0852 323.096C108.939 329.15 161.176 330.909 226.777 325.644L233.654 325.09C271.528 322.112 300.585 320.527 354.364 320.149L369.21 320.039C401.227 319.749 414.835 319.176 427.972 317.35L429.221 317.17C487.233 305.823 445.374 285.463 421.359 285.371C400.792 285.291 376.089 291.077 369.21 288.912C347.527 282.087 336.393 271.637 308.816 268.293L300.797 267.332L293.952 267.009C181.759 261.797 101.803 261.531 54.1464 267.76Z" fill="#00160A"/>
<path d="M126.809 4.10717C126.41 4.09406 126.011 4.09479 125.613 4.10862C115.795 4.44642 108.089 12.5993 108.266 22.3909L108.274 22.6879L108.395 26.357C108.74 37.3768 108.93 48.3528 108.964 59.2859L109.024 92.9246C109.037 105.032 109.029 115.959 108.994 126.659L108.945 138.007C108.754 174.137 108.24 199.492 107.284 210.529L107.1 212.593C105.947 226.082 105.708 245.457 106.392 270.672C106.4 270.963 106.414 271.254 106.436 271.545C107.191 281.768 116.009 289.468 126.21 288.88L126.52 288.859L129.91 288.613C161.597 286.352 193.284 285.221 224.972 285.221C255.988 285.221 287.242 286.305 318.733 288.471C319.644 288.534 320.559 288.539 321.47 288.487C333.41 287.812 342.57 277.681 342.089 265.772L342.072 265.411L341.833 261.116C339.719 222.426 338.625 183.738 338.55 145.048L338.545 140.749C338.545 112.55 339.866 73.8765 342.506 24.711C342.535 24.1599 342.541 23.6081 342.524 23.057C342.193 12.3845 333.358 3.97831 322.721 4.13628L322.397 4.14429L306.298 4.63205C269.719 5.71095 243.085 6.27515 226.377 6.32319L223.513 6.32684L220.567 6.31883C203.511 6.2453 177.108 5.66071 141.342 4.56435L126.809 4.10717Z" fill="white"/>
<path fill-rule="evenodd" clip-rule="evenodd" d="M321.15 3.104C319.86 3.81016 318.161 4.30738 316.051 4.59422C321.481 5.07688 325.75 4.96404 328.858 4.25715L328.186 4.17416C325.997 3.89752 323.652 3.5408 321.15 3.104Z" fill="#E7EAEE"/>
<path fill-rule="evenodd" clip-rule="evenodd" d="M116.923 263.45L117.074 263.456C118.012 263.521 118.674 264.254 118.588 265.062C118.489 265.988 117.499 266.887 116.419 266.961C115.56 267.021 114.963 266.36 115.059 265.334C115.159 264.259 116.002 263.454 116.923 263.45Z" fill="#E7EAEE"/>
<path fill-rule="evenodd" clip-rule="evenodd" d="M134.111 277.511L134.261 277.516C135.2 277.582 135.861 278.315 135.775 279.124C135.676 280.05 134.687 280.948 133.607 281.022C132.748 281.081 132.151 280.421 132.247 279.395C132.347 278.319 133.19 277.515 134.111 277.511Z" fill="#E7EAEE"/>
<path fill-rule="evenodd" clip-rule="evenodd" d="M225.157 276.587C187.875 284.815 257.877 283.362 285.185 281.559C300.047 280.578 311.914 288.003 318.728 288.471C319.64 288.534 320.554 288.539 321.465 288.487C333.405 287.812 342.565 277.681 342.084 265.772L342.067 265.411L341.828 261.116C339.714 222.426 338.62 183.738 338.545 145.048L338.54 140.749C338.54 112.55 339.861 73.8766 342.501 24.7104C342.53 24.16 342.537 23.6082 342.519 23.0571C342.187 12.3839 321.737 255.272 225.157 276.587Z" fill="#E7EAEE"/>
<path d="M335.737 266.641L335.869 266.647C336.548 266.701 337.104 267.409 337.024 268.272C336.935 269.229 336.11 270.089 335.287 270.153C334.709 270.199 334.22 269.577 334.306 268.509C334.395 267.415 335.079 266.658 335.737 266.641Z" fill="white"/>
<path fill-rule="evenodd" clip-rule="evenodd" d="M335.499 272.879C333.073 273.07 331.367 270.901 331.578 268.288C331.783 265.75 333.716 263.735 336.039 263.918C338.322 264.099 339.96 266.182 339.743 268.525C339.534 270.774 337.682 272.706 335.499 272.879ZM335.865 266.647L335.734 266.641C335.077 266.657 334.392 267.415 334.303 268.509C334.217 269.577 334.706 270.199 335.284 270.153C336.107 270.088 336.932 269.228 337.021 268.272C337.101 267.408 336.545 266.7 335.865 266.647Z" fill="white"/>
<path d="M312.642 19.864C321.27 19.864 328.266 26.8594 328.266 35.4876C328.266 35.8101 328.256 36.1334 328.235 36.4559L328.006 40.283C327.587 47.5469 327.168 56.1716 326.75 66.1568L326.686 67.7555C325.666 94.6165 325.633 158.163 326.589 258.395C326.672 267.023 319.744 274.084 311.116 274.167C310.906 274.168 310.696 274.166 310.485 274.159L139.083 268.871C131.147 268.627 124.656 262.468 123.996 254.555L123.851 252.769C121.593 224.316 121.459 187.985 123.447 143.775L123.739 137.435C124.754 114.171 124.834 80.2887 123.978 35.7883C123.814 27.251 130.529 20.1821 139.029 19.8749L139.448 19.8647L312.642 19.864Z" fill="white"/>
<path fill-rule="evenodd" clip-rule="evenodd" d="M197.404 204.106C204.976 204.425 212.753 203.082 219.496 199.787C227.942 195.66 234.297 188.737 237.815 178.809C242.449 165.733 240.746 151.593 234.085 139.149C228.157 128.073 218.836 119.643 210.244 117.559C210.244 117.559 234.085 151.096 230.67 169.43C225.448 197.463 197.404 204.106 197.404 204.106Z" fill="#E7EAEE"/>
<path fill-rule="evenodd" clip-rule="evenodd" d="M202.912 164.72C206.597 166.249 207.722 169.089 206.287 173.241L206.204 173.473C196.872 199.097 185.868 199.331 195.284 173.473C196.425 170.341 196.143 167.938 194.435 166.264C197.452 165.652 200.277 165.137 202.912 164.72Z" fill="#E7EAEE"/>
<path fill-rule="evenodd" clip-rule="evenodd" d="M144.464 134.768C146.878 127.594 150.404 122.201 156.994 117.937L157.831 117.407C159.253 116.514 161.005 115.504 162.431 116.194C164.242 117.071 166.864 120.268 165.268 121.522C164.186 122.373 159.733 123.278 156.376 126.219C152.412 129.692 149.559 135.287 149.559 136.657C149.559 141.126 143.038 139.005 144.464 134.768Z" fill="#E7EAEE"/>
<path fill-rule="evenodd" clip-rule="evenodd" d="M136.996 32.5166C128.707 55.2753 128.763 59.7911 128.266 55.8687C126.657 43.1818 125.444 34.8447 127.355 29.7808C129.775 23.3693 135.841 22.1084 137.403 22.8524C140.706 24.4256 136.996 32.5166 136.996 32.5166Z" fill="#E7EAEE"/>
<path fill-rule="evenodd" clip-rule="evenodd" d="M273.365 149.481L270.608 149.396C267.336 149.313 264.978 149.333 262.999 149.487C261.411 149.612 260.225 149.829 259.554 150.041L259.42 150.085L259.407 150.148C259.333 150.519 259.28 151.016 259.257 151.616L259.25 151.846C259.206 153.648 259.423 156.055 259.856 158.742C260.211 160.947 260.695 163.236 261.201 165.166L261.328 165.641C261.524 166.361 261.713 166.987 261.879 167.475L261.939 167.649L262.011 167.676C263.027 168.037 265.046 168.08 268.941 167.792L271.587 167.586C273.369 167.455 274.667 167.398 275.949 167.414L288.381 167.675C290.12 167.707 291.691 167.732 293.231 167.753L296.024 167.785C302.998 168.19 310.663 167.886 311.617 166.15C314.524 160.855 315.896 149.951 314.524 149.878C312.057 149.746 309.071 149.592 307.652 149.611L304.377 149.67L301.406 149.694C300.05 149.701 298.635 149.706 297.116 149.707L280.078 149.668C278.971 149.661 277.885 149.634 275.931 149.569L273.365 149.481Z" fill="#E7EAEE"/>
<path fill-rule="evenodd" clip-rule="evenodd" d="M142.726 0.698622L126.933 0.203588C126.448 0.187572 125.963 0.188299 125.478 0.205043C113.406 0.620003 103.955 10.7436 104.37 22.816L104.49 26.4786C104.632 31.0016 104.847 35.5174 105.062 40.0259C105.427 47.6815 105.791 55.3154 105.791 62.9288L105.842 90.5389C105.89 129.044 105.774 192.457 104.064 210.825L103.935 212.266C102.823 225.281 101.824 243.591 102.395 267.196L102.487 270.777C102.496 271.129 102.514 271.481 102.54 271.833C103.463 284.31 114.324 293.677 126.801 292.755L130.187 292.509L130.748 292.469C130.861 292.658 130.975 292.847 131.089 293.034C131.637 293.939 132.149 294.784 132.268 295.2C132.569 296.246 132.6 297.432 132.427 300.115L132.251 302.629L132.203 303.446C131.947 308.459 132.526 311.441 134.972 313.687C138.117 316.575 141.448 316.268 148.275 315.641L148.582 315.612L150.339 315.442C152.37 315.246 154.654 315.405 156.21 315.513H156.211C156.66 315.544 157.047 315.571 157.351 315.584L157.926 315.612C161.843 315.769 162.465 314.48 162.808 311.292C162.997 309.536 162.751 308.154 161.719 304.588L160.947 301.96L160.69 301.047C159.485 296.592 159.595 294.369 161.165 293.293C161.546 293.032 163.138 292.559 164.973 292.013C166.862 291.451 169.009 290.812 170.361 290.25C188.564 289.501 206.768 289.127 224.972 289.127C244.098 289.127 263.316 289.541 282.625 290.367C282.497 290.576 282.474 290.876 282.61 291.297C282.763 291.772 283.344 292.1 284.087 292.52C286.055 293.633 289.157 295.388 288.436 302.2L288.439 302.481C288.547 307.851 291.803 311.001 297.039 312.071C300.541 312.786 304.524 312.57 308.861 311.817C311.009 311.445 312.393 310.102 313.053 308.056C313.418 306.925 313.548 305.91 313.634 303.889C313.634 303.889 312.679 293.385 317.99 292.335C318.148 292.346 318.306 292.357 318.465 292.367C319.079 292.41 319.696 292.43 320.312 292.428C320.395 292.447 320.479 292.469 320.563 292.491C320.818 292.56 321.061 292.521 321.279 292.407C321.416 292.402 321.553 292.394 321.69 292.387C335.904 291.583 346.775 279.408 345.97 265.194L345.732 260.902C343.544 220.852 342.45 180.8 342.45 140.749C342.45 113.475 343.691 76.3291 346.171 29.3105L346.405 24.9199C346.441 24.2589 346.448 23.5971 346.427 22.9354C346.026 9.99882 335.213 -0.161877 322.276 0.239979L314.077 0.491873C273.447 1.72365 244.212 2.36575 226.371 2.41744L223.516 2.42035C206.86 2.40797 179.929 1.83357 142.726 0.698622ZM312.658 291.98C303.63 291.397 294.623 290.903 285.635 290.499C289.938 292.588 291.473 296.488 291.558 301.883L291.56 302.2C291.56 305.691 294.276 307.97 297.928 308.715C298.31 308.793 298.703 308.878 299.104 308.966C301.626 309.513 304.511 310.139 307.709 309.614L308.194 309.531C310.407 308.715 310.407 300.768 310.407 300.768C310.431 300.121 310.453 299.7 310.491 299.187L310.539 298.611C310.816 295.718 311.42 293.556 312.658 291.98ZM136.022 294.123C135.81 293.383 135.508 292.729 135.116 292.166C142.78 291.648 150.443 291.196 158.107 290.81C156.909 292.144 156.797 293.946 156.753 296.099C156.715 297.954 157.09 299.927 157.878 302.706L157.926 302.872L158.647 305.329C159.531 308.362 159.796 309.631 159.722 310.694L159.706 310.875C159.599 311.861 158.333 312.974 156.192 312.85L155.809 312.83C154.891 312.691 145.847 312.85 145.847 312.85C141.672 313.273 139.662 312.691 137.613 310.81C136.238 309.547 135.869 307.304 136.14 303.012L136.309 300.603C136.521 297.452 136.504 295.978 136.107 294.433L136.022 294.123ZM125.612 4.10858C126.011 4.09475 126.409 4.09402 126.808 4.10712L141.34 4.5643C177.107 5.66067 203.511 6.24525 220.566 6.31878L223.513 6.32606L226.376 6.32315C243.084 6.27437 269.718 5.7109 306.297 4.63201L322.397 4.14425L322.72 4.13624C333.357 3.97826 342.192 12.3838 342.524 23.057C342.541 23.6081 342.535 24.1599 342.505 24.7102C339.865 73.8764 338.545 112.55 338.545 140.749L338.548 145.048C338.624 183.737 339.718 222.426 341.832 261.116L342.071 265.41L342.089 265.772C342.568 277.681 333.409 287.812 321.469 288.487C320.557 288.539 319.644 288.533 318.733 288.47C287.241 286.305 255.987 285.221 224.972 285.221C193.283 285.221 161.596 286.352 129.909 288.613L126.519 288.859L126.21 288.88C116.009 289.468 107.191 281.768 106.435 271.544C106.414 271.254 106.399 270.963 106.391 270.671C105.708 245.457 105.946 226.082 107.099 212.593L107.284 210.529C108.239 199.492 108.754 174.136 108.944 138.007L108.993 126.659C109.028 115.958 109.035 105.032 109.022 92.9246L108.963 59.2859C108.928 48.3528 108.739 37.3767 108.394 26.3563L108.274 22.6879L108.266 22.3908C108.088 12.5992 115.794 4.44564 125.612 4.10858ZM328.269 35.4876C328.269 26.8586 321.274 19.8639 312.646 19.8639L139.452 19.8647L139.033 19.8741C130.532 20.1814 123.817 27.251 123.982 35.7875C124.838 80.2879 124.758 114.171 123.742 137.435L123.451 143.775C121.462 187.984 121.597 224.315 123.854 252.769L123.999 254.555C124.66 262.468 131.151 268.627 139.086 268.871L310.489 274.159C310.699 274.166 310.91 274.168 311.119 274.166C319.748 274.084 326.675 267.023 326.593 258.395C325.637 158.163 325.669 94.6164 326.69 67.7554L326.754 66.1567C327.171 56.1715 327.59 47.5469 328.01 40.2829L328.239 36.4551C328.259 36.1333 328.269 35.8101 328.269 35.4876ZM139.602 23.7697H312.646C319.117 23.7697 324.363 29.0156 324.363 35.4876C324.363 35.7293 324.356 35.9717 324.341 36.2134C323.931 42.8018 323.524 50.6664 323.118 59.81L322.851 65.9937C321.82 90.6699 321.719 149.762 322.549 243.366L322.687 258.432C322.749 264.903 317.553 270.199 311.082 270.26C310.925 270.262 310.767 270.26 310.609 270.255L139.207 264.968L138.949 264.957C133.115 264.65 128.38 260.078 127.892 254.23C125.487 225.409 125.326 188.175 127.417 142.552L127.612 138.33C128.598 116.378 128.739 84.8969 128.035 43.8632L127.887 35.7125C127.762 29.2428 132.906 23.8963 139.376 23.7719C139.452 23.7704 139.527 23.7697 139.602 23.7697ZM133.616 11.7912C133.862 14.4469 131.938 16.5778 129.345 16.3994C126.975 16.2356 124.889 14.3428 124.646 12.0627L124.631 11.896C124.481 9.62754 126.218 7.69907 128.55 7.45155L128.726 7.43626C131.212 7.26518 133.377 9.23078 133.616 11.7912ZM129.029 10.1604L128.878 10.1663C127.94 10.2311 127.278 10.9642 127.364 11.773C127.463 12.699 128.453 13.5973 129.533 13.6716C130.392 13.7306 130.988 13.0703 130.893 12.0445C130.793 10.9685 129.95 10.1641 129.029 10.1604ZM115.207 32.5013C112.504 32.7408 110.682 30.1404 110.907 27.0224C111.128 23.9655 113.226 21.5092 115.825 21.7393L115.994 21.7582C118.381 22.0683 120.03 24.4169 119.895 27.0493L119.883 27.2335C119.66 29.9242 117.642 32.2851 115.207 32.5013ZM115.625 24.4656L115.492 24.4598C114.664 24.4693 113.751 25.5897 113.634 27.2189C113.517 28.846 114.217 29.8441 114.965 29.7779C115.98 29.6876 117.038 28.45 117.158 27.0078C117.27 25.6421 116.502 24.5443 115.625 24.4656ZM317.589 11.7912C317.342 14.4469 319.266 16.5778 321.86 16.3994C324.23 16.2356 326.316 14.3428 326.559 12.0627L326.573 11.896C326.724 9.62754 324.986 7.69907 322.655 7.45155L322.478 7.43626C319.992 7.26518 317.827 9.23078 317.589 11.7912ZM322.176 10.1604L322.326 10.1663C323.265 10.2311 323.926 10.9642 323.84 11.773C323.741 12.699 322.752 13.5973 321.672 13.6716C320.813 13.7306 320.217 13.0703 320.312 12.0445C320.412 10.9685 321.255 10.1641 322.176 10.1604ZM332.147 28.0321C330.696 25.8765 331.58 23.1443 334.003 22.0305C336.34 20.9559 339.123 21.8485 340.218 24.0871L340.293 24.2472C341.245 26.3905 340.444 28.8598 338.404 29.863L338.253 29.9344C336.156 30.8633 333.474 30.0043 332.147 28.0321ZM337.779 25.3203L337.708 25.1863C337.244 24.3906 336.126 24.0631 335.145 24.5144C334.209 24.9447 333.935 25.792 334.415 26.5062C335.02 27.4046 336.293 27.8123 337.144 27.4344C337.888 27.1054 338.192 26.1655 337.779 25.3203ZM113.276 262.032C111.38 263.908 111.484 266.777 113.585 268.306C115.507 269.705 118.321 269.596 119.973 268.006L120.091 267.887C121.665 266.246 121.573 263.652 119.945 261.964L119.821 261.839C118.025 260.11 115.104 260.223 113.276 262.032ZM117.838 263.731L117.95 263.832C118.627 264.485 118.662 265.472 118.076 266.036C117.405 266.682 116.07 266.734 115.194 266.097C114.499 265.59 114.466 264.7 115.199 263.975C115.967 263.216 117.129 263.142 117.838 263.731ZM130.771 282.368C128.67 280.837 128.565 277.968 130.461 276.093C132.29 274.284 135.211 274.17 137.006 275.899L137.131 276.025C138.758 277.713 138.85 280.307 137.276 281.948L137.158 282.066C135.506 283.657 132.692 283.767 130.771 282.368ZM135.135 277.893L135.023 277.791C134.315 277.202 133.152 277.277 132.384 278.037C131.652 278.761 131.684 279.651 132.38 280.157C133.255 280.795 134.591 280.743 135.262 280.097C135.848 279.533 135.812 278.546 135.135 277.893ZM323.104 277.001C320.927 279.196 320.869 282.425 323.187 284.086C325.311 285.606 328.49 285.306 330.393 283.434C332.364 281.494 332.42 278.372 330.481 276.472C328.518 274.551 325.225 274.861 323.104 277.001ZM328.482 278.348L328.593 278.45C329.397 279.238 329.373 280.602 328.474 281.486C327.507 282.437 325.806 282.598 324.78 281.862C323.947 281.267 323.971 280.01 325.045 278.926C326.136 277.826 327.653 277.648 328.482 278.348ZM335.504 272.879C333.077 273.07 331.372 270.9 331.583 268.288C331.788 265.75 333.721 263.734 336.043 263.918C338.327 264.098 339.965 266.182 339.747 268.525C339.538 270.774 337.686 272.706 335.504 272.879ZM335.87 266.646L335.738 266.641C335.081 266.657 334.396 267.415 334.308 268.509C334.222 269.577 334.71 270.198 335.288 270.153C336.112 270.088 336.936 269.228 337.025 268.272C337.105 267.408 336.549 266.7 335.87 266.646Z" fill="#00160A"/>
<path fill-rule="evenodd" clip-rule="evenodd" d="M130.459 276.093C128.564 277.969 128.668 280.838 130.768 282.368C132.689 283.767 135.504 283.657 137.156 282.067L137.274 281.948C138.847 280.307 138.756 277.713 137.129 276.025L137.004 275.9C135.209 274.17 132.287 274.285 130.459 276.093ZM135.02 277.792L135.133 277.893C135.81 278.546 135.846 279.533 135.26 280.097C134.589 280.743 133.254 280.795 132.378 280.158C131.682 279.651 131.65 278.761 132.382 278.037C133.15 277.278 134.313 277.203 135.02 277.792Z" fill="#00160A"/>
<path d="M328.48 278.348L328.591 278.45C329.395 279.238 329.37 280.602 328.473 281.486C327.505 282.438 325.805 282.598 324.777 281.863C323.946 281.268 323.969 280.01 325.043 278.926C326.134 277.826 327.651 277.649 328.48 278.348Z" fill="white"/>
<path fill-rule="evenodd" clip-rule="evenodd" d="M156.079 110.697C155.177 111.011 154.364 111.435 153.358 112.054L152.586 112.538L152.204 112.782C146.379 116.542 142.49 121.218 139.723 127.55L139.575 127.893L139.464 127.86C138.73 127.644 138.064 127.539 137.352 127.599C135.835 127.724 134.421 128.633 133.916 130.328C133.127 132.974 133.452 136 134.477 139.099L134.669 139.666C135.668 142.539 136.774 144.487 138.613 145.056C141.058 145.812 149.504 142.465 152.45 139.426C154.55 137.259 153.709 134.609 151.709 133.079L151.526 132.944L151.332 132.81L151.113 132.668L151.26 132.406C151.362 132.226 151.469 132.042 151.58 131.858C152.775 129.877 154.268 128.005 155.781 126.679C156.364 126.169 157.037 125.701 157.806 125.265C158.994 124.589 163.734 122.729 164.531 122.101C167.094 120.086 166.797 117.167 165.177 114.637C164.168 113.063 162.584 111.588 161.052 110.847C159.443 110.067 157.76 110.114 156.079 110.697ZM159.52 114.01C161.331 114.887 163.953 118.084 162.358 119.339C161.276 120.189 156.822 121.094 153.465 124.035C149.501 127.508 146.649 133.103 146.649 134.473L147.101 134.643C149.573 135.593 150.514 136.373 149.926 136.98C147.304 139.684 140.18 141.862 139.653 141.698C139.133 141.538 136.059 135.441 137.285 131.332C137.448 130.783 138.871 131.2 141.554 132.585C143.968 125.41 147.493 120.017 154.083 115.753L154.92 115.223C156.342 114.33 158.095 113.32 159.52 114.01Z" fill="#00160A"/>
<path fill-rule="evenodd" clip-rule="evenodd" d="M161.41 191.589C146.94 175.776 146.102 148.8 161.734 131.428C171.446 120.635 194.273 113.684 210.246 117.559C218.838 119.643 228.159 128.073 234.087 139.149C240.749 151.594 242.45 165.733 237.817 178.809C234.299 188.737 227.944 195.661 219.498 199.787C212.755 203.082 204.978 204.425 197.406 204.106C183.741 203.531 166.749 197.424 161.41 191.589ZM230.644 140.992C225.199 130.82 216.715 123.148 209.325 121.355L208.885 121.251C194.315 117.947 173.297 124.417 164.638 134.041C150.382 149.883 151.149 174.59 164.291 188.952C168.827 193.909 184.851 199.668 197.57 200.204C204.533 200.497 211.672 199.264 217.783 196.278C225.327 192.591 230.966 186.449 234.135 177.504C238.379 165.53 236.812 152.517 230.644 140.992ZM223.12 178.414C231.764 163.241 220.046 130.479 203.682 127.744C188.298 125.174 182.467 128.905 175.833 134.658L174.55 135.783C161.566 147.263 161.566 171.924 174.251 183.366C177.439 186.24 191.463 193.616 202.226 191.36C209.362 189.864 219.292 185.134 223.12 178.414ZM187.002 132.024C187.816 131.732 188.675 131.491 189.591 131.304C189.467 131.588 189.362 131.89 189.275 132.209C188.791 133.993 188.84 135.518 189.363 139.233L189.721 141.694C189.751 141.911 189.778 142.111 189.805 142.314L189.884 142.94C190.441 147.643 189.936 150.096 187.833 151.449C185.909 152.687 184.016 153.154 179.694 153.657L178.076 153.84C176.082 154.07 175.034 154.229 173.775 154.513L173.205 154.628C171.459 154.995 170.01 155.451 168.886 156.025C169.627 149.308 172.378 142.917 177.137 138.709C181.626 134.741 183.891 133.139 187.002 132.024ZM203.038 131.597C202.406 131.49 201.791 131.397 201.192 131.313C201.317 131.63 201.424 131.968 201.512 132.325C201.877 133.814 201.94 135.137 201.852 138.15L201.809 139.45C201.763 140.701 201.741 141.446 201.735 142.161L201.734 143.018C201.771 146.83 202.368 149.364 203.835 151.08L203.998 151.264L204.062 151.291C204.153 151.327 204.268 151.368 204.405 151.414L204.55 151.462C204.885 151.569 205.307 151.687 205.845 151.829L206.747 152.059L210.597 153.002C211.353 153.19 212.025 153.362 212.67 153.531L213.729 153.817C216.911 154.693 219.351 155.548 221.125 156.501C218.475 144.636 211.179 132.957 203.038 131.597ZM221.551 165.227C221.771 165.087 221.979 164.944 222.175 164.8C222.271 169.226 221.529 173.318 219.726 176.482C217.138 181.024 209.951 185.351 202.932 187.182C203.11 186.734 203.253 186.248 203.364 185.727C203.705 184.125 203.76 182.29 203.626 179.691L203.541 178.293L203.414 176.454C203.173 172.78 203.231 171.242 203.551 170.875C204.992 169.218 206.988 168.584 212.069 167.855L213.247 167.687C217.494 167.067 219.486 166.543 221.551 165.227ZM191.698 185.279C191.751 185.938 191.971 186.611 192.326 187.246C190.525 186.866 188.65 186.318 186.74 185.619C182.469 184.056 178.326 181.781 176.867 180.465C172.234 176.286 169.568 169.979 168.867 163.338C170.067 163.891 171.654 164.358 173.625 164.825L173.928 164.896C174.723 165.08 175.537 165.252 176.497 165.441L179.24 165.974C185.381 167.236 188.551 168.699 190 170.652L190.145 170.856C191.105 172.255 191.37 173.839 191.447 177.951L191.491 180.881C191.525 182.635 191.579 183.798 191.698 185.279ZM196.317 131.469L196.493 131.485C198.151 131.683 198.502 133.22 198.306 139.019L198.24 141.03C198.224 141.636 198.217 142.124 198.217 142.659C198.22 146.295 198.655 149.12 199.824 151.382C199.606 151.266 199.357 151.2 199.092 151.2L198.827 151.204L198.76 151.205L198.73 151.193C198.282 151.027 197.792 151.079 197.395 151.312L197.355 151.338L197.217 151.36C193.811 151.928 190.424 153.963 188.609 156.658C186.662 159.55 186.758 162.706 188.98 165.409C186.866 164.293 184.061 163.399 180.359 162.617L179.164 162.377C178.462 162.24 177.585 162.072 177.584 162.072L176.878 161.933C176.196 161.797 175.592 161.67 175.012 161.538L174.723 161.472C172.96 161.063 171.568 160.642 170.595 160.204L170.44 160.132C170.141 159.99 169.903 159.853 169.734 159.731L169.711 159.713L169.754 159.669C169.875 159.55 170.057 159.414 170.306 159.27C171.159 158.777 172.566 158.326 174.495 157.954L174.983 157.848C175.841 157.672 176.682 157.546 177.995 157.389L180.126 157.146C184.973 156.582 187.217 156.025 189.735 154.404C193.407 152.042 194.107 148.348 193.333 142.186L193.248 141.535C193.204 141.217 193.157 140.885 193.094 140.46L192.852 138.795C192.417 135.7 192.355 134.371 192.64 133.234L192.667 133.131C193.016 131.849 193.904 131.319 196.317 131.469ZM192.687 168.378C192.733 168.438 192.778 168.498 192.823 168.558C194.483 170.797 194.864 172.775 194.961 177.826L195 180.495C195.029 182.164 195.072 183.265 195.166 184.538L195.202 184.996C195.275 185.9 196.816 187.335 198.518 187.01C199.844 186.757 200.358 184.584 200.108 179.749L200.073 179.144L199.879 176.306C199.573 171.66 199.67 170.117 200.73 168.771C198.188 169.728 195.232 169.681 192.687 168.378ZM204.831 165.837C206.407 165.241 208.414 164.837 211.201 164.429L212.712 164.213C216.241 163.697 217.948 163.275 219.394 162.426L219.663 162.262C221.299 161.22 221.456 161.012 220.728 160.425L220.493 160.242C219.206 159.274 216.721 158.306 213.144 157.303L212.388 157.095C211.572 156.874 210.733 156.658 209.745 156.413L205.634 155.405C204.857 155.209 204.236 155.046 203.731 154.896C206.908 158.256 207.434 162.037 205.25 165.267L205.127 165.446C205.032 165.579 204.933 165.709 204.831 165.837ZM197.844 154.423L198.066 154.392L198.223 154.486C203.333 157.594 204.47 160.978 202.581 163.634C200.701 166.276 196.573 167.189 193.611 165.312C190.177 163.136 189.607 160.77 191.201 158.404C192.546 156.406 195.238 154.824 197.844 154.423Z" fill="#00160A"/>
<path d="M249.358 145.927C249.502 145.4 249.643 145.25 249.643 145.246C250.14 144.886 251.179 144.519 252.902 144.275C254.57 144.038 256.61 143.95 258.855 143.946C261.093 143.941 263.472 144.019 265.814 144.1C265.952 144.105 266.09 144.11 266.226 144.115C268.412 144.19 270.563 144.265 272.466 144.268C274.709 144.27 276.988 144.278 279.284 144.286C284.896 144.305 290.607 144.324 296.131 144.268C296.371 144.265 296.719 144.257 297.154 144.249C298.916 144.211 302.1 144.144 305.347 144.249C307.368 144.314 309.352 144.444 310.977 144.68C311.791 144.797 312.474 144.936 313.008 145.092C313.576 145.256 313.831 145.4 313.9 145.453C314.025 145.547 314.282 145.838 314.558 146.522C314.823 147.18 315.045 148.055 315.199 149.112C315.506 151.227 315.51 153.85 315.207 156.435C314.903 159.03 314.307 161.451 313.497 163.201C312.62 165.097 311.815 165.562 311.432 165.604C301.713 166.659 285.291 166.3 272.214 166.013C270.748 165.981 269.325 165.95 267.957 165.921C266.316 165.888 264.6 165.998 262.954 166.125C262.555 166.156 262.161 166.188 261.773 166.22C260.528 166.32 259.337 166.417 258.185 166.466C256.679 166.529 255.367 166.503 254.273 166.32C253.31 166.158 252.626 165.893 252.149 165.555C252.096 165.439 252.026 165.27 251.941 165.041C251.733 164.478 251.484 163.681 251.218 162.704C250.687 160.757 250.122 158.206 249.702 155.603C249.281 152.986 249.022 150.398 249.072 148.348C249.097 147.319 249.199 146.507 249.358 145.927ZM252.23 165.712C252.23 165.713 252.224 165.704 252.212 165.683C252.224 165.701 252.23 165.711 252.23 165.712Z" stroke="#421EB7" stroke-width="5.36509"/>
<path fill-rule="evenodd" clip-rule="evenodd" d="M272.422 142.693C274.676 142.695 276.961 142.703 279.26 142.711C283.987 142.727 288.775 142.743 293.463 142.714L296.065 142.693C296.288 142.691 296.619 142.684 297.038 142.675C300.95 142.593 312.497 142.349 315.036 144.276C319.19 147.429 317.536 167.278 311.597 167.923C301.74 168.994 285.176 168.63 272.137 168.344C270.666 168.311 269.239 168.28 267.872 168.252C265.973 168.213 263.93 168.378 261.912 168.542C257.387 168.909 252.992 169.265 250.654 167.278C249.448 166.253 244.803 146.744 248.421 144.065C251.186 142.018 259.114 142.293 266.237 142.541C268.006 142.602 269.724 142.662 271.303 142.684L271.306 142.682L271.307 142.684C271.688 142.689 272.06 142.692 272.422 142.693ZM267.659 146.497C268.043 146.51 268.394 146.521 268.718 146.531C268.981 148.149 269.011 150.991 268.822 155.178L268.683 158.204C268.56 161.033 268.515 162.958 268.596 164.362L267.677 164.343C266.396 164.326 265.097 164.383 263.315 164.514L260.67 164.721C256.776 165.008 254.755 164.965 253.739 164.604L253.667 164.577L253.607 164.403C253.441 163.916 253.253 163.29 253.056 162.57L252.929 162.095C252.424 160.165 251.939 157.875 251.585 155.671C251.152 152.983 250.934 150.576 250.978 148.774L250.986 148.545C251.009 147.944 251.062 147.448 251.136 147.076L251.15 147.014L251.282 146.969C251.953 146.757 253.14 146.54 254.728 146.416C256.706 146.262 259.064 146.242 262.336 146.325L265.094 146.409L267.659 146.497ZM280.109 164.603L272.559 164.445C272.518 164.002 272.489 163.458 272.478 162.828L272.476 162.693C272.464 161.703 272.484 160.758 272.553 159.098L272.773 154.216C272.906 150.863 272.91 148.428 272.688 146.599L288.845 146.636C289.71 146.635 290.542 146.633 291.347 146.631C291.101 151.49 291.494 159.99 291.999 164.737C290.636 164.735 289.221 164.727 287.753 164.713L284.959 164.682C283.42 164.661 281.849 164.636 280.109 164.603ZM295.967 164.724C301.969 164.674 306.788 164.479 310.523 164.108L310.872 164.071L310.92 164.023C311.119 163.797 311.352 163.434 311.59 162.948L311.679 162.76C312.38 161.243 312.936 159.033 313.222 156.585C313.506 154.164 313.503 151.711 313.221 149.772C313.091 148.877 312.908 148.144 312.701 147.63L312.643 147.492L312.599 147.401L312.443 147.352C312.025 147.228 311.451 147.11 310.749 147.005C309.365 146.799 307.583 146.661 305.498 146.588C303.559 146.52 301.588 146.51 299.381 146.539L296.105 146.599L295.175 146.606C295.144 147.134 295.121 147.762 295.113 148.466L295.111 148.695C295.095 150.598 295.163 152.997 295.298 155.653L295.326 156.187C295.438 158.271 295.587 160.423 295.745 162.316L295.841 163.418C295.884 163.89 295.926 164.328 295.967 164.724ZM278.766 153.196L279.122 153.706C279.529 154.279 279.913 154.787 280.279 155.234C279.788 156.304 279.53 157.506 279.449 159.053C279.42 159.616 279.852 160.096 280.415 160.126C280.977 160.155 281.458 159.722 281.487 159.16C281.533 158.269 281.643 157.533 281.837 156.881C282.966 157.869 283.955 158.236 284.994 158.255H285.194C285.758 158.255 286.214 157.798 286.214 157.235C286.214 156.706 285.813 156.272 285.299 156.22L285.194 156.215H285.023C284.357 156.2 283.687 155.919 282.772 154.997C283.07 154.581 283.429 154.168 283.858 153.727L284.952 152.645C285.352 152.249 285.355 151.602 284.959 151.203C284.562 150.802 283.915 150.799 283.516 151.196L282.599 152.098C282.154 152.544 281.763 152.972 281.422 153.4L281.051 152.897C280.859 152.632 280.659 152.347 280.449 152.041C280.129 151.576 279.494 151.458 279.03 151.777C278.565 152.096 278.447 152.731 278.766 153.196ZM306.624 152.224L306.633 151.602C306.638 151.038 306.186 150.578 305.622 150.573C305.059 150.568 304.598 151.021 304.593 151.585C304.588 152.204 304.572 152.76 304.546 153.256C304.023 153.092 303.46 152.956 302.842 152.835L301.578 152.6C301.025 152.495 300.49 152.858 300.386 153.411C300.281 153.965 300.644 154.499 301.197 154.604L302.71 154.89C303.312 155.015 303.84 155.156 304.32 155.335C304.077 156.611 303.678 157.218 303.135 157.603L302.993 157.699L302.909 157.762C302.512 158.092 302.422 158.677 302.717 159.115C303.033 159.583 303.667 159.706 304.133 159.39L304.3 159.278C305.151 158.681 305.766 157.824 306.149 156.374C306.675 156.806 307.176 157.355 307.714 158.068C308.052 158.518 308.692 158.608 309.142 158.269C309.592 157.929 309.682 157.29 309.343 156.84C308.411 155.603 307.525 154.75 306.519 154.137C306.572 153.562 306.607 152.926 306.624 152.224Z" fill="#00160A"/>
<path fill-rule="evenodd" clip-rule="evenodd" d="M262.113 152.137L261.953 152.739C261.767 153.416 261.58 154.024 261.389 154.57C262.216 155.407 262.87 156.449 263.475 157.875C263.695 158.394 263.453 158.993 262.935 159.213C262.415 159.433 261.816 159.191 261.596 158.673C261.248 157.851 260.894 157.197 260.488 156.65C259.766 157.965 258.962 158.648 257.991 159.021L257.803 159.09C257.274 159.283 256.688 159.01 256.495 158.48C256.315 157.984 256.543 157.439 257.009 157.213L257.105 157.173L257.266 157.114C257.887 156.872 258.421 156.379 258.965 155.2C258.542 154.911 258.064 154.646 257.511 154.378L256.112 153.735C255.601 153.499 255.377 152.894 255.613 152.382C255.849 151.87 256.455 151.647 256.966 151.882L258.136 152.417C258.706 152.683 259.22 152.952 259.688 153.238C259.833 152.762 259.982 152.227 260.138 151.627C260.278 151.082 260.835 150.753 261.38 150.895C261.925 151.035 262.254 151.591 262.113 152.137Z" fill="#64FCD9"/>
<defs>
<linearGradient id="paint0_linear_29230_2368" x1="156.16" y1="10.9775" x2="508.951" y2="101.182" gradientUnits="userSpaceOnUse">
<stop stop-color="#EB1484"/>
<stop offset="0.9999" stop-color="#C91CC3"/>
<stop offset="1" stop-color="#C81CC5"/>
<stop offset="1" stop-color="#C81CC5"/>
</linearGradient>
<linearGradient id="paint1_linear_29230_2368" x1="69.8533" y1="45.3936" x2="88.0962" y2="48.0132" gradientUnits="userSpaceOnUse">
<stop stop-color="#EB1484"/>
<stop offset="0.9999" stop-color="#C91CC3"/>
<stop offset="1" stop-color="#C81CC5"/>
<stop offset="1" stop-color="#C81CC5"/>
</linearGradient>
</defs>
</svg>
